<?xml version="1.0" encoding="UTF-8"?>
<svg width="800" height="600" viewBox="0 0 800 600" fill="none" xmlns="http://www.w3.org/2000/svg">
  <!-- Background -->
  <rect width="800" height="600" fill="#f8fafc" />
  
  <!-- Title -->
  <text x="400" y="40" font-family="Arial, sans-serif" font-size="24" font-weight="bold" text-anchor="middle" fill="#334155">AI-Powered Matching Algorithm</text>
  
  <!-- Center process platform -->
  <rect x="250" y="290" width="300" height="80" rx="10" fill="#f1f5f9" stroke="#e2e8f0" stroke-width="2"/>
  
  <!-- Left profile - Woman -->
  <g transform="translate(120, 200)">
    <!-- Profile card -->
    <rect x="0" y="0" width="120" height="180" rx="10" fill="white" stroke="#e2e8f0" stroke-width="2"/>
    
    <!-- Profile picture -->
    <circle cx="60" cy="50" r="30" fill="#FF6B6B" opacity="0.2"/>
    <circle cx="60" cy="50" r="25" fill="#FF6B6B" opacity="0.1"/>
    
    <!-- Woman silhouette -->
    <path d="M60 30 Q55 30 52 36 Q50 40 50 45 Q50 55 60 60 Q70 55 70 45 Q70 40 68 36 Q65 30 60 30" fill="#FF6B6B"/>
    <path d="M50 60 L50 75 Q60 80 70 75 L70 60" fill="#FF6B6B"/>
    
    <!-- Text fields -->
    <rect x="20" y="90" width="80" height="10" rx="5" fill="#e2e8f0"/>
    <rect x="20" y="110" width="60" height="10" rx="5" fill="#e2e8f0"/>
    
    <!-- MBTI label -->
    <rect x="30" y="130" width="60" height="20" rx="5" fill="#FF6B6B" opacity="0.8"/>
    <text x="60" y="145" font-family="Arial, sans-serif" font-size="12" font-weight="bold" text-anchor="middle" fill="white">ENFP</text>
  </g>
  
  <!-- Right profile - Man -->
  <g transform="translate(560, 200)">
    <!-- Profile card -->
    <rect x="0" y="0" width="120" height="180" rx="10" fill="white" stroke="#e2e8f0" stroke-width="2"/>
    
    <!-- Profile picture -->
    <circle cx="60" cy="50" r="30" fill="#6A4C93" opacity="0.2"/>
    <circle cx="60" cy="50" r="25" fill="#6A4C93" opacity="0.1"/>
    
    <!-- Man silhouette -->
    <path d="M60 30 Q53 30 50 38 Q48 45 50 50 Q52 55 60 60 Q68 55 70 50 Q72 45 70 38 Q67 30 60 30" fill="#6A4C93"/>
    <path d="M50 60 L48 75 Q60 80 72 75 L70 60" fill="#6A4C93"/>
    
    <!-- Text fields -->
    <rect x="20" y="90" width="80" height="10" rx="5" fill="#e2e8f0"/>
    <rect x="20" y="110" width="60" height="10" rx="5" fill="#e2e8f0"/>
    
    <!-- MBTI label -->
    <rect x="30" y="130" width="60" height="20" rx="5" fill="#6A4C93" opacity="0.8"/>
    <text x="60" y="145" font-family="Arial, sans-serif" font-size="12" font-weight="bold" text-anchor="middle" fill="white">INTJ</text>
  </g>
  
  <!-- AI Agents -->
  
  <!-- Agent 1 - Data collector -->
  <g transform="translate(250, 200)">
    <!-- Agent platform -->
    <rect x="0" y="0" width="80" height="50" rx="5" fill="#4ECDC4" opacity="0.1" stroke="#4ECDC4" stroke-width="1"/>
    
    <!-- Agent figure -->
    <circle cx="25" cy="25" r="15" fill="#4ECDC4" opacity="0.2"/>
    <circle cx="25" cy="25" r="10" fill="#4ECDC4" opacity="0.5"/>
    <path d="M20 22 L24 26 L30 20" stroke="white" stroke-width="2"/>
    
    <!-- Label -->
    <text x="55" y="30" font-family="Arial, sans-serif" font-size="10" text-anchor="middle" fill="#4ECDC4">Data</text>
    <text x="55" y="42" font-family="Arial, sans-serif" font-size="10" text-anchor="middle" fill="#4ECDC4">Collection</text>
  </g>
  
  <!-- Agent 2 - Personality analyzer -->
  <g transform="translate(350, 200)">
    <!-- Agent platform -->
    <rect x="0" y="0" width="80" height="50" rx="5" fill="#FFD166" opacity="0.1" stroke="#FFD166" stroke-width="1"/>
    
    <!-- Agent figure -->
    <circle cx="25" cy="25" r="15" fill="#FFD166" opacity="0.2"/>
    <circle cx="25" cy="25" r="10" fill="#FFD166" opacity="0.5"/>
    <path d="M20 22 L24 26 L30 20" stroke="white" stroke-width="2"/>
    
    <!-- Label -->
    <text x="55" y="30" font-family="Arial, sans-serif" font-size="10" text-anchor="middle" fill="#FFD166">MBTI</text>
    <text x="55" y="42" font-family="Arial, sans-serif" font-size="10" text-anchor="middle" fill="#FFD166">Analysis</text>
  </g>
  
  <!-- Agent 3 - Compatibility matcher -->
  <g transform="translate(470, 200)">
    <!-- Agent platform -->
    <rect x="0" y="0" width="80" height="50" rx="5" fill="#FF6B6B" opacity="0.1" stroke="#FF6B6B" stroke-width="1"/>
    
    <!-- Agent figure -->
    <circle cx="25" cy="25" r="15" fill="#FF6B6B" opacity="0.2"/>
    <circle cx="25" cy="25" r="10" fill="#FF6B6B" opacity="0.5"/>
    <path d="M20 22 L24 26 L30 20" stroke="white" stroke-width="2"/>
    
    <!-- Label -->
    <text x="55" y="30" font-family="Arial, sans-serif" font-size="10" text-anchor="middle" fill="#FF6B6B">Match</text>
    <text x="55" y="42" font-family="Arial, sans-serif" font-size="10" text-anchor="middle" fill="#FF6B6B">Analysis</text>
  </g>
  
  <!-- Flowing data lines - Left to right -->
  <path d="M240 290 L270 290 C275 290 280 285 280 280 L280 270" stroke="#4ECDC4" stroke-width="2" stroke-dasharray="4,2"/>
  <path d="M240 290 L350 330" stroke="#4ECDC4" stroke-width="2" stroke-dasharray="4,2"/>
  
  <path d="M330 250 L350 250" stroke="#FFD166" stroke-width="2" stroke-dasharray="4,2"/>
  <path d="M390 290 L350 330" stroke="#FFD166" stroke-width="2" stroke-dasharray="4,2"/>
  
  <path d="M430 250 L450 250" stroke="#FF6B6B" stroke-width="2" stroke-dasharray="4,2"/>
  <path d="M550 290 L450 330" stroke="#FF6B6B" stroke-width="2" stroke-dasharray="4,2"/>
  
  <!-- Match percentage -->
  <g transform="translate(350, 320)">
    <circle cx="50" cy="30" r="25" fill="#4ECDC4" opacity="0.1"/>
    <circle cx="50" cy="30" r="20" fill="#4ECDC4" opacity="0.2"/>
    <text x="50" y="35" font-family="Arial, sans-serif" font-size="16" font-weight="bold" text-anchor="middle" fill="#4ECDC4">95%</text>
  </g>
  
  <!-- Heart with pulse -->
  <g transform="translate(340, 400)">
    <!-- Heart shape -->
    <path d="M60 20 Q40 0 20 20 Q0 40 20 60 Q40 80 60 60 Q80 40 60 20Z" fill="#FF6B6B" opacity="0.2"/>
    <!-- Pulse line -->
    <path d="M10 40 L20 40 L30 25 L40 55 L50 35 L60 45 L70 40 L80 40" stroke="#FF6B6B" stroke-width="2" fill="none"/>
  </g>
  
  <!-- Arrows between profiles and algorithm -->
  <path d="M240 260 L250 260" stroke="#334155" stroke-width="2" />
  <path d="M250 260 L260 260" stroke="#334155" stroke-width="2" />
  <polygon points="265,260 255,255 255,265" fill="#334155" />
  
  <path d="M560 260 L550 260" stroke="#334155" stroke-width="2" />
  <path d="M550 260 L540 260" stroke="#334155" stroke-width="2" />
  <polygon points="535,260 545,255 545,265" fill="#334155" />
  
  <!-- Match line between profiles -->
  <path d="M240 330 C300 390 500 390 560 330" stroke="#4ECDC4" stroke-width="2" stroke-dasharray="4,2"/>
  <circle cx="400" cy="375" r="5" fill="#4ECDC4"/>
  
  <!-- Title -->
  <text x="400" y="90" font-family="Arial, sans-serif" font-size="16" font-weight="bold" text-anchor="middle" fill="#334155">Intelligent Matchmaking</text>
  
  <!-- Explanation -->
  <text x="400" y="520" font-family="Arial, sans-serif" font-size="14" font-weight="bold" text-anchor="middle" fill="#334155">Our AI agents analyze personality types and preferences</text>
  <text x="400" y="545" font-family="Arial, sans-serif" font-size="14" text-anchor="middle" fill="#64748b">Creating deeper connections based on true compatibility</text>
</svg>